# xmcd
#
# Track frame offsets: 
#        150
#        15501
#        35001
#        48663
#        65765
#        76621
#        91906
#        103998
#        117188
#        131405
#        143862
#        153920
#
# Disc length: 2182 seconds
#
# Revision: 0
# Processed by: cddbd v1.5.2PL0 Copyright (c) Steve Scherf et al.
# Submitted via: ExactAudioCopyFreeDBPlugin 1.0
#
DISCID=9a08840c
DTITLE=Midwesterners - Ridin' With Chuck
DYEAR=2006
DGENRE=Country
TTITLE0=Keep The Dance Floor Full
TTITLE1=Best Years
TTITLE2=Rusted Custom Ford
TTITLE3=Ridin' With Chuck
TTITLE4=I Know Where It's At
TTITLE5=If It's Bad Why Does It Feel So Good
TTITLE6=Roll With The Punches
TTITLE7=Studebaker
TTITLE8=Waitin' For Somethin' To Break
TTITLE9=You Never Can Tell
TTITLE10=I'm Your Daddy's Worst Nightmare
TTITLE11=Keep Your Motor Oiled
EXTD=
EXTT0=
EXTT1=
EXTT2=
EXTT3=
EXTT4=
EXTT5=
EXTT6=
EXTT7=
EXTT8=
EXTT9=
EXTT10=
EXTT11=
PLAYORDER=
